<svg xmlns="http://www.w3.org/2000/svg" viewBox="0 0 64 64" role="img" aria-label="Tuna">
  <circle cx="32" cy="32" r="32" fill="#fff"/>
  <g fill="#000">
    <path d="M 4 30
             Q 5 25 10 23
             Q 18 21 28 21
             Q 38 22 44 24
             Q 47 26 47 28
             Q 50 16 62 4
             Q 54 18 52 30
             Q 54 42 62 56
             Q 50 44 47 32
             Q 47 34 44 36
             Q 38 38 28 39
             Q 18 39 10 37
             Q 5 35 4 30 Z"/>
    <path d="M 22 22 Q 26 10 30 8 Q 32 12 32 22 Z"/>
    <path d="M 20 28 Q 26 38 34 42 Q 30 32 26 28 Z"/>
  </g>
  <circle cx="10" cy="28" r="1" fill="#fff"/>
</svg>
